<svg width="989" height="673" viewBox="0 0 989 673" fill="none" xmlns="http://www.w3.org/2000/svg">
<g filter="url(#filter0_f_122_8240)">
<circle cx="547.181" cy="375.182" r="146.5" transform="rotate(45 547.181 375.182)" fill="#76B0FF"/>
</g>
<circle cx="547" cy="327" r="144" stroke="white" stroke-width="12"/>
<circle cx="547" cy="327" r="138" fill="white"/>
<mask id="mask0_122_8240" style="mask-type:alpha" maskUnits="userSpaceOnUse" x="409" y="189" width="276" height="276">
<circle cx="547" cy="327" r="138" fill="#D9D9D9"/>
</mask>
<g mask="url(#mask0_122_8240)">
<rect x="372" y="167" width="350" height="310" fill="#524BE3"/>
</g>
<circle cx="547" cy="327" r="187" stroke="white" stroke-width="2"/>
<circle cx="547" cy="327" r="237" stroke="white" stroke-width="2"/>
<g filter="url(#filter1_d_122_8240)">
<circle cx="670" cy="159" r="44" fill="white" shape-rendering="crispEdges"/>
<circle cx="670" cy="159" r="46" stroke="white" stroke-opacity="0.2" stroke-width="4" shape-rendering="crispEdges"/>
</g>
<path d="M661.202 176C661.148 176 661.103 175.984 661.066 175.952C661.034 175.92 661.018 175.877 661.018 175.824V170.584C661.018 170.525 661.034 170.48 661.066 170.448C661.103 170.416 661.148 170.4 661.202 170.4H661.402C661.455 170.4 661.495 170.413 661.522 170.44C661.548 170.467 661.564 170.488 661.57 170.504L663.386 174.04L665.21 170.504C665.22 170.488 665.236 170.467 665.258 170.44C665.284 170.413 665.324 170.4 665.378 170.4H665.57C665.628 170.4 665.674 170.416 665.706 170.448C665.738 170.48 665.754 170.525 665.754 170.584V175.824C665.754 175.877 665.738 175.92 665.706 175.952C665.674 175.984 665.628 176 665.57 176H665.426C665.372 176 665.33 175.984 665.298 175.952C665.266 175.92 665.25 175.877 665.25 175.824V171.488L663.722 174.496C663.7 174.549 663.668 174.589 663.626 174.616C663.588 174.643 663.538 174.656 663.474 174.656H663.298C663.234 174.656 663.183 174.643 663.146 174.616C663.108 174.589 663.076 174.549 663.05 174.496L661.522 171.488V175.824C661.522 175.877 661.506 175.92 661.474 175.952C661.442 175.984 661.399 176 661.346 176H661.202ZM668.996 176.08C668.665 176.08 668.39 176.021 668.172 175.904C667.958 175.781 667.785 175.629 667.652 175.448V175.824C667.652 175.877 667.636 175.92 667.604 175.952C667.572 175.984 667.529 176 667.476 176H667.34C667.286 176 667.244 175.984 667.212 175.952C667.18 175.92 667.164 175.877 667.164 175.824V170.496C667.164 170.443 667.18 170.4 667.212 170.368C667.244 170.336 667.286 170.32 667.34 170.32H667.476C667.529 170.32 667.572 170.336 667.604 170.368C667.636 170.4 667.652 170.443 667.652 170.496V172.392C667.785 172.216 667.958 172.067 668.172 171.944C668.39 171.821 668.665 171.76 668.996 171.76C669.31 171.76 669.574 171.816 669.788 171.928C670.001 172.04 670.174 172.189 670.308 172.376C670.441 172.563 670.54 172.771 670.604 173C670.668 173.229 670.702 173.461 670.708 173.696C670.713 173.776 670.716 173.851 670.716 173.92C670.716 173.989 670.713 174.064 670.708 174.144C670.702 174.379 670.668 174.611 670.604 174.84C670.54 175.069 670.441 175.277 670.308 175.464C670.174 175.651 670.001 175.8 669.788 175.912C669.574 176.024 669.31 176.08 668.996 176.08ZM668.948 175.616C669.262 175.616 669.51 175.547 669.692 175.408C669.873 175.269 670.004 175.088 670.084 174.864C670.164 174.64 670.209 174.4 670.22 174.144C670.225 173.995 670.225 173.845 670.22 173.696C670.209 173.44 670.164 173.2 670.084 172.976C670.004 172.752 669.873 172.571 669.692 172.432C669.51 172.293 669.262 172.224 668.948 172.224C668.654 172.224 668.412 172.293 668.22 172.432C668.033 172.571 667.892 172.744 667.796 172.952C667.705 173.16 667.657 173.371 667.652 173.584C667.646 173.664 667.644 173.768 667.644 173.896C667.644 174.024 667.646 174.128 667.652 174.208C667.662 174.427 667.71 174.645 667.796 174.864C667.886 175.077 668.025 175.256 668.212 175.4C668.398 175.544 668.644 175.616 668.948 175.616ZM671.98 177.52C671.927 177.52 671.884 177.504 671.852 177.472C671.82 177.44 671.804 177.397 671.804 177.344V172.016C671.804 171.963 671.82 171.92 671.852 171.888C671.884 171.856 671.927 171.84 671.98 171.84H672.116C672.17 171.84 672.212 171.856 672.244 171.888C672.276 171.92 672.292 171.963 672.292 172.016V172.392C672.426 172.211 672.599 172.061 672.812 171.944C673.031 171.821 673.306 171.76 673.636 171.76C673.951 171.76 674.215 171.816 674.428 171.928C674.642 172.035 674.815 172.179 674.948 172.36C675.082 172.541 675.18 172.744 675.244 172.968C675.308 173.192 675.343 173.421 675.348 173.656C675.354 173.736 675.356 173.824 675.356 173.92C675.356 174.016 675.354 174.104 675.348 174.184C675.343 174.419 675.308 174.648 675.244 174.872C675.18 175.096 675.082 175.299 674.948 175.48C674.815 175.661 674.642 175.808 674.428 175.92C674.215 176.027 673.951 176.08 673.636 176.08C673.306 176.08 673.031 176.019 672.812 175.896C672.599 175.773 672.426 175.624 672.292 175.448V177.344C672.292 177.397 672.276 177.44 672.244 177.472C672.212 177.504 672.17 177.52 672.116 177.52H671.98ZM673.588 175.616C673.903 175.616 674.151 175.547 674.332 175.408C674.514 175.269 674.644 175.088 674.724 174.864C674.804 174.64 674.85 174.4 674.86 174.144C674.866 173.995 674.866 173.845 674.86 173.696C674.85 173.44 674.804 173.2 674.724 172.976C674.644 172.752 674.514 172.571 674.332 172.432C674.151 172.293 673.903 172.224 673.588 172.224C673.284 172.224 673.039 172.296 672.852 172.44C672.666 172.584 672.527 172.765 672.436 172.984C672.351 173.197 672.303 173.413 672.292 173.632C672.287 173.712 672.284 173.816 672.284 173.944C672.284 174.072 672.287 174.176 672.292 174.256C672.298 174.469 672.346 174.68 672.436 174.888C672.532 175.096 672.674 175.269 672.86 175.408C673.052 175.547 673.295 175.616 673.588 175.616ZM677.765 176.08C677.488 176.08 677.248 176.043 677.045 175.968C676.848 175.893 676.685 175.805 676.557 175.704C676.429 175.597 676.333 175.493 676.269 175.392C676.21 175.291 676.178 175.213 676.173 175.16C676.168 175.101 676.186 175.059 676.229 175.032C676.272 175 676.312 174.984 676.349 174.984H676.469C676.501 174.984 676.528 174.989 676.549 175C676.576 175.011 676.608 175.04 676.645 175.088C676.714 175.179 676.794 175.267 676.885 175.352C676.976 175.432 677.09 175.496 677.229 175.544C677.373 175.592 677.552 175.616 677.765 175.616C678.085 175.616 678.349 175.555 678.557 175.432C678.765 175.309 678.869 175.128 678.869 174.888C678.869 174.739 678.826 174.619 678.741 174.528C678.661 174.437 678.522 174.357 678.325 174.288C678.128 174.219 677.861 174.147 677.525 174.072C677.189 173.992 676.93 173.896 676.749 173.784C676.573 173.672 676.453 173.544 676.389 173.4C676.325 173.251 676.293 173.091 676.293 172.92C676.293 172.733 676.346 172.552 676.453 172.376C676.56 172.195 676.717 172.048 676.925 171.936C677.138 171.819 677.405 171.76 677.725 171.76C677.986 171.76 678.208 171.795 678.389 171.864C678.576 171.933 678.728 172.019 678.845 172.12C678.962 172.216 679.048 172.312 679.101 172.408C679.16 172.504 679.192 172.581 679.197 172.64C679.202 172.693 679.186 172.736 679.149 172.768C679.112 172.8 679.069 172.816 679.021 172.816H678.901C678.858 172.816 678.824 172.808 678.797 172.792C678.77 172.771 678.746 172.744 678.725 172.712C678.672 172.627 678.608 172.547 678.533 172.472C678.458 172.397 678.357 172.339 678.229 172.296C678.106 172.248 677.938 172.224 677.725 172.224C677.405 172.224 677.168 172.291 677.013 172.424C676.858 172.552 676.781 172.717 676.781 172.92C676.781 173.037 676.813 173.141 676.877 173.232C676.941 173.317 677.061 173.397 677.237 173.472C677.413 173.541 677.669 173.616 678.005 173.696C678.346 173.771 678.616 173.864 678.813 173.976C679.01 174.083 679.149 174.211 679.229 174.36C679.314 174.509 679.357 174.685 679.357 174.888C679.357 175.101 679.296 175.299 679.173 175.48C679.056 175.661 678.877 175.808 678.637 175.92C678.402 176.027 678.112 176.08 677.765 176.08Z" fill="#8A87C7"/>
<path d="M682.557 182.398C683.457 184.075 685.56 184.72 687.122 183.634C691.667 180.475 695.269 176.105 697.499 170.991C700.191 164.819 700.727 157.922 699.023 151.408C697.319 144.894 693.474 139.143 688.105 135.079C682.737 131.016 676.157 128.877 669.425 129.006C662.693 129.135 656.201 131.524 650.992 135.79C645.783 140.057 642.16 145.951 640.707 152.525C639.254 159.1 640.055 165.972 642.98 172.036C645.405 177.061 649.171 181.289 653.834 184.272C655.437 185.297 657.514 184.572 658.349 182.862V182.862C659.184 181.152 658.455 179.109 656.888 178.029C653.6 175.764 650.939 172.673 649.187 169.041C646.933 164.37 646.316 159.077 647.436 154.013C648.555 148.948 651.346 144.408 655.358 141.122C659.371 137.836 664.372 135.995 669.557 135.895C674.743 135.796 679.811 137.444 683.946 140.574C688.082 143.704 691.044 148.134 692.357 153.152C693.669 158.169 693.256 163.483 691.183 168.237C689.571 171.932 687.03 175.123 683.831 177.513C682.307 178.652 681.657 180.721 682.557 182.398V182.398Z" fill="#EE585B"/>
<path d="M693.398 146.443C695.075 145.543 695.72 143.44 694.634 141.878C692.604 138.957 690.066 136.413 687.131 134.372C683.251 131.673 678.788 129.929 674.106 129.282C669.423 128.635 664.655 129.104 660.188 130.65C655.721 132.196 651.683 134.775 648.403 138.178C645.122 141.581 642.692 145.71 641.31 150.231C639.929 154.751 639.635 159.533 640.452 164.189C641.27 168.844 643.176 173.241 646.015 177.02C648.162 179.878 650.797 182.321 653.789 184.243C655.391 185.271 657.468 184.55 658.306 182.841V182.841C659.144 181.133 658.42 179.088 656.855 178.006C654.82 176.599 653.019 174.87 651.524 172.88C649.337 169.969 647.869 166.583 647.239 162.997C646.61 159.411 646.836 155.727 647.9 152.245C648.965 148.763 650.837 145.582 653.364 142.961C655.891 140.34 659.001 138.353 662.442 137.162C665.883 135.971 669.556 135.61 673.163 136.109C676.769 136.607 680.207 137.95 683.196 140.029C685.239 141.45 687.032 143.187 688.513 145.169C689.652 146.693 691.721 147.343 693.398 146.443V146.443Z" fill="#EB0E70"/>
<path d="M658.725 167C658.581 167 658.461 166.952 658.365 166.856C658.269 166.744 658.221 166.616 658.221 166.472C658.221 166.408 658.237 166.336 658.269 166.256L663.933 153.416H656.565C656.405 153.416 656.261 153.36 656.133 153.248C656.021 153.136 655.965 153 655.965 152.84V150.8C655.965 150.624 656.021 150.48 656.133 150.368C656.261 150.256 656.405 150.2 656.565 150.2H667.437C667.629 150.2 667.773 150.256 667.869 150.368C667.981 150.48 668.037 150.624 668.037 150.8V152.6C668.037 152.84 668.013 153.04 667.965 153.2C667.933 153.344 667.877 153.496 667.797 153.656L662.157 166.424C662.109 166.52 662.021 166.64 661.893 166.784C661.781 166.928 661.597 167 661.341 167H658.725ZM676.692 167.24C675.54 167.24 674.548 167.08 673.716 166.76C672.9 166.424 672.22 165.968 671.676 165.392C671.148 164.8 670.748 164.12 670.476 163.352C670.22 162.568 670.068 161.736 670.02 160.856C670.004 160.424 669.988 159.944 669.972 159.416C669.972 158.872 669.972 158.328 669.972 157.784C669.988 157.24 670.004 156.744 670.02 156.296C670.052 155.416 670.204 154.592 670.476 153.824C670.764 153.056 671.18 152.384 671.724 151.808C672.268 151.232 672.948 150.784 673.764 150.464C674.596 150.128 675.572 149.96 676.692 149.96C677.812 149.96 678.78 150.128 679.596 150.464C680.412 150.784 681.092 151.232 681.636 151.808C682.18 152.384 682.588 153.056 682.86 153.824C683.148 154.592 683.316 155.416 683.364 156.296C683.38 156.744 683.388 157.24 683.388 157.784C683.404 158.328 683.404 158.872 683.388 159.416C683.388 159.944 683.38 160.424 683.364 160.856C683.316 161.736 683.156 162.568 682.884 163.352C682.612 164.12 682.204 164.8 681.66 165.392C681.132 165.968 680.452 166.424 679.62 166.76C678.804 167.08 677.828 167.24 676.692 167.24ZM676.692 164.12C677.62 164.12 678.3 163.816 678.732 163.208C679.164 162.6 679.396 161.776 679.428 160.736C679.444 160.272 679.452 159.792 679.452 159.296C679.468 158.8 679.468 158.304 679.452 157.808C679.452 157.312 679.444 156.848 679.428 156.416C679.396 155.424 679.164 154.616 678.732 153.992C678.3 153.368 677.62 153.048 676.692 153.032C675.748 153.048 675.06 153.368 674.628 153.992C674.212 154.616 673.988 155.424 673.956 156.416C673.94 156.848 673.924 157.312 673.908 157.808C673.908 158.304 673.908 158.8 673.908 159.296C673.924 159.792 673.94 160.272 673.956 160.736C673.988 161.776 674.22 162.6 674.652 163.208C675.084 163.816 675.764 164.12 676.692 164.12Z" fill="#23214B"/>
<g filter="url(#filter2_d_122_8240)">
<circle cx="438" cy="250" r="26" fill="white" shape-rendering="crispEdges"/>
<circle cx="438" cy="250" r="28" stroke="white" stroke-opacity="0.2" stroke-width="4" shape-rendering="crispEdges"/>
</g>
<path d="M425.053 263C425.019 263 424.993 262.99 424.973 262.97C424.953 262.95 424.943 262.923 424.943 262.89V259.615C424.943 259.578 424.953 259.55 424.973 259.53C424.993 259.51 425.019 259.5 425.053 259.5H425.143C425.179 259.5 425.208 259.51 425.228 259.53C425.248 259.55 425.258 259.578 425.258 259.615V261.075H427.188V259.615C427.188 259.578 427.198 259.55 427.218 259.53C427.238 259.51 427.264 259.5 427.298 259.5H427.388C427.424 259.5 427.453 259.51 427.473 259.53C427.493 259.55 427.503 259.578 427.503 259.615V262.89C427.503 262.923 427.493 262.95 427.473 262.97C427.453 262.99 427.424 263 427.388 263H427.298C427.264 263 427.238 262.99 427.218 262.97C427.198 262.95 427.188 262.923 427.188 262.89V261.375H425.258V262.89C425.258 262.923 425.248 262.95 425.228 262.97C425.208 262.99 425.179 263 425.143 263H425.053ZM428.489 263C428.455 263 428.429 262.99 428.409 262.97C428.389 262.95 428.379 262.923 428.379 262.89V260.51C428.379 260.477 428.389 260.45 428.409 260.43C428.429 260.41 428.455 260.4 428.489 260.4H428.574C428.607 260.4 428.634 260.41 428.654 260.43C428.674 260.45 428.684 260.477 428.684 260.51V262.89C428.684 262.923 428.674 262.95 428.654 262.97C428.634 262.99 428.607 263 428.574 263H428.489ZM428.434 259.865C428.4 259.865 428.374 259.855 428.354 259.835C428.334 259.815 428.324 259.788 428.324 259.755V259.565C428.324 259.532 428.334 259.505 428.354 259.485C428.374 259.462 428.4 259.45 428.434 259.45H428.624C428.657 259.45 428.684 259.462 428.704 259.485C428.727 259.505 428.739 259.532 428.739 259.565V259.755C428.739 259.788 428.727 259.815 428.704 259.835C428.684 259.855 428.657 259.865 428.624 259.865H428.434ZM430.462 264.1C430.249 264.1 430.074 264.072 429.937 264.015C429.804 263.958 429.699 263.888 429.622 263.805C429.549 263.725 429.497 263.643 429.467 263.56C429.437 263.48 429.42 263.415 429.417 263.365C429.414 263.332 429.424 263.303 429.447 263.28C429.47 263.26 429.497 263.25 429.527 263.25H429.597C429.624 263.25 429.647 263.255 429.667 263.265C429.687 263.278 429.704 263.308 429.717 263.355C429.737 263.408 429.769 263.47 429.812 263.54C429.859 263.613 429.93 263.677 430.027 263.73C430.127 263.783 430.264 263.81 430.437 263.81C430.62 263.81 430.774 263.787 430.897 263.74C431.02 263.693 431.114 263.61 431.177 263.49C431.244 263.373 431.277 263.21 431.277 263V262.655C431.194 262.768 431.084 262.863 430.947 262.94C430.814 263.013 430.644 263.05 430.437 263.05C430.244 263.05 430.079 263.015 429.942 262.945C429.809 262.875 429.7 262.782 429.617 262.665C429.534 262.548 429.472 262.418 429.432 262.275C429.392 262.132 429.37 261.987 429.367 261.84C429.364 261.747 429.364 261.653 429.367 261.56C429.37 261.413 429.392 261.268 429.432 261.125C429.472 260.982 429.534 260.852 429.617 260.735C429.7 260.618 429.809 260.525 429.942 260.455C430.079 260.385 430.244 260.35 430.437 260.35C430.644 260.35 430.814 260.388 430.947 260.465C431.084 260.542 431.194 260.635 431.277 260.745V260.515C431.277 260.482 431.287 260.455 431.307 260.435C431.327 260.412 431.354 260.4 431.387 260.4H431.467C431.5 260.4 431.527 260.412 431.547 260.435C431.57 260.455 431.582 260.482 431.582 260.515V262.95C431.582 263.163 431.55 263.357 431.487 263.53C431.424 263.703 431.31 263.842 431.147 263.945C430.987 264.048 430.759 264.1 430.462 264.1ZM430.467 262.76C430.657 262.76 430.81 262.715 430.927 262.625C431.044 262.535 431.129 262.423 431.182 262.29C431.239 262.153 431.27 262.017 431.277 261.88C431.28 261.83 431.282 261.77 431.282 261.7C431.282 261.63 431.28 261.57 431.277 261.52C431.27 261.383 431.239 261.248 431.182 261.115C431.129 260.978 431.044 260.865 430.927 260.775C430.81 260.685 430.657 260.64 430.467 260.64C430.274 260.64 430.119 260.683 430.002 260.77C429.889 260.857 429.807 260.97 429.757 261.11C429.707 261.25 429.679 261.4 429.672 261.56C429.669 261.653 429.669 261.747 429.672 261.84C429.679 262 429.707 262.15 429.757 262.29C429.807 262.43 429.889 262.543 430.002 262.63C430.119 262.717 430.274 262.76 430.467 262.76ZM432.512 263C432.479 263 432.452 262.99 432.432 262.97C432.412 262.95 432.402 262.923 432.402 262.89V259.56C432.402 259.527 432.412 259.5 432.432 259.48C432.452 259.46 432.479 259.45 432.512 259.45H432.597C432.631 259.45 432.657 259.46 432.677 259.48C432.697 259.5 432.707 259.527 432.707 259.56V260.745C432.797 260.628 432.906 260.533 433.032 260.46C433.162 260.387 433.334 260.35 433.547 260.35C433.774 260.35 433.962 260.4 434.112 260.5C434.266 260.597 434.379 260.73 434.452 260.9C434.529 261.067 434.567 261.257 434.567 261.47V262.89C434.567 262.923 434.557 262.95 434.537 262.97C434.517 262.99 434.491 263 434.457 263H434.372C434.339 263 434.312 262.99 434.292 262.97C434.272 262.95 434.262 262.923 434.262 262.89V261.495C434.262 261.228 434.197 261.02 434.067 260.87C433.937 260.717 433.747 260.64 433.497 260.64C433.261 260.64 433.069 260.717 432.922 260.87C432.779 261.02 432.707 261.228 432.707 261.495V262.89C432.707 262.923 432.697 262.95 432.677 262.97C432.657 262.99 432.631 263 432.597 263H432.512ZM437.755 263.05C437.485 263.05 437.255 263.007 437.065 262.92C436.879 262.833 436.735 262.722 436.635 262.585C436.535 262.448 436.482 262.303 436.475 262.15C436.475 262.123 436.485 262.1 436.505 262.08C436.525 262.06 436.55 262.05 436.58 262.05H436.68C436.714 262.05 436.739 262.06 436.755 262.08C436.775 262.1 436.787 262.123 436.79 262.15C436.804 262.243 436.845 262.337 436.915 262.43C436.985 262.52 437.089 262.597 437.225 262.66C437.362 262.72 437.539 262.75 437.755 262.75C438.082 262.75 438.32 262.692 438.47 262.575C438.62 262.455 438.695 262.295 438.695 262.095C438.695 261.962 438.655 261.855 438.575 261.775C438.499 261.692 438.38 261.618 438.22 261.555C438.06 261.488 437.855 261.415 437.605 261.335C437.369 261.258 437.174 261.18 437.02 261.1C436.867 261.017 436.754 260.917 436.68 260.8C436.61 260.683 436.575 260.533 436.575 260.35C436.575 260.18 436.62 260.028 436.71 259.895C436.8 259.758 436.93 259.65 437.1 259.57C437.274 259.49 437.484 259.45 437.73 259.45C437.927 259.45 438.099 259.477 438.245 259.53C438.392 259.583 438.514 259.655 438.61 259.745C438.707 259.832 438.78 259.927 438.83 260.03C438.88 260.13 438.907 260.228 438.91 260.325C438.91 260.348 438.902 260.372 438.885 260.395C438.869 260.415 438.842 260.425 438.805 260.425H438.705C438.689 260.425 438.667 260.418 438.64 260.405C438.617 260.392 438.602 260.365 438.595 260.325C438.575 260.158 438.487 260.022 438.33 259.915C438.177 259.805 437.977 259.75 437.73 259.75C437.484 259.75 437.282 259.798 437.125 259.895C436.969 259.992 436.89 260.143 436.89 260.35C436.89 260.483 436.925 260.593 436.995 260.68C437.065 260.763 437.175 260.838 437.325 260.905C437.475 260.968 437.669 261.038 437.905 261.115C438.155 261.195 438.362 261.275 438.525 261.355C438.689 261.435 438.81 261.533 438.89 261.65C438.97 261.763 439.01 261.912 439.01 262.095C439.01 262.298 438.959 262.472 438.855 262.615C438.755 262.755 438.612 262.863 438.425 262.94C438.239 263.013 438.015 263.05 437.755 263.05ZM439.783 263.95C439.749 263.95 439.723 263.94 439.703 263.92C439.683 263.9 439.673 263.873 439.673 263.84V260.51C439.673 260.477 439.683 260.45 439.703 260.43C439.723 260.41 439.749 260.4 439.783 260.4H439.868C439.901 260.4 439.928 260.41 439.948 260.43C439.968 260.45 439.978 260.477 439.978 260.51V260.745C440.061 260.632 440.169 260.538 440.303 260.465C440.439 260.388 440.611 260.35 440.818 260.35C441.014 260.35 441.179 260.385 441.313 260.455C441.446 260.522 441.554 260.612 441.638 260.725C441.721 260.838 441.783 260.965 441.823 261.105C441.863 261.245 441.884 261.388 441.888 261.535C441.891 261.585 441.893 261.64 441.893 261.7C441.893 261.76 441.891 261.815 441.888 261.865C441.884 262.012 441.863 262.155 441.823 262.295C441.783 262.435 441.721 262.562 441.638 262.675C441.554 262.788 441.446 262.88 441.313 262.95C441.179 263.017 441.014 263.05 440.818 263.05C440.611 263.05 440.439 263.012 440.303 262.935C440.169 262.858 440.061 262.765 439.978 262.655V263.84C439.978 263.873 439.968 263.9 439.948 263.92C439.928 263.94 439.901 263.95 439.868 263.95H439.783ZM440.788 262.76C440.984 262.76 441.139 262.717 441.253 262.63C441.366 262.543 441.448 262.43 441.498 262.29C441.548 262.15 441.576 262 441.583 261.84C441.586 261.747 441.586 261.653 441.583 261.56C441.576 261.4 441.548 261.25 441.498 261.11C441.448 260.97 441.366 260.857 441.253 260.77C441.139 260.683 440.984 260.64 440.788 260.64C440.598 260.64 440.444 260.685 440.328 260.775C440.211 260.865 440.124 260.978 440.068 261.115C440.014 261.248 439.984 261.383 439.978 261.52C439.974 261.57 439.973 261.635 439.973 261.715C439.973 261.795 439.974 261.86 439.978 261.91C439.981 262.043 440.011 262.175 440.068 262.305C440.128 262.435 440.216 262.543 440.333 262.63C440.453 262.717 440.604 262.76 440.788 262.76ZM443.538 263.05C443.215 263.05 442.958 262.945 442.768 262.735C442.578 262.522 442.47 262.243 442.443 261.9C442.44 261.85 442.438 261.783 442.438 261.7C442.438 261.617 442.44 261.55 442.443 261.5C442.46 261.273 442.513 261.073 442.603 260.9C442.693 260.727 442.816 260.592 442.973 260.495C443.133 260.398 443.321 260.35 443.538 260.35C443.771 260.35 443.97 260.402 444.133 260.505C444.296 260.608 444.421 260.757 444.508 260.95C444.598 261.143 444.643 261.373 444.643 261.64V261.715C444.643 261.748 444.631 261.775 444.608 261.795C444.588 261.815 444.561 261.825 444.528 261.825H442.748C442.748 261.825 442.748 261.832 442.748 261.845C442.748 261.858 442.748 261.868 442.748 261.875C442.755 262.025 442.79 262.168 442.853 262.305C442.916 262.438 443.006 262.548 443.123 262.635C443.24 262.718 443.378 262.76 443.538 262.76C443.681 262.76 443.8 262.738 443.893 262.695C443.99 262.652 444.066 262.605 444.123 262.555C444.18 262.502 444.216 262.462 444.233 262.435C444.263 262.392 444.286 262.367 444.303 262.36C444.32 262.35 444.346 262.345 444.383 262.345H444.463C444.493 262.345 444.518 262.355 444.538 262.375C444.561 262.392 444.571 262.415 444.568 262.445C444.565 262.492 444.538 262.55 444.488 262.62C444.441 262.687 444.373 262.753 444.283 262.82C444.196 262.887 444.09 262.942 443.963 262.985C443.836 263.028 443.695 263.05 443.538 263.05ZM442.748 261.545H444.338V261.525C444.338 261.358 444.306 261.208 444.243 261.075C444.18 260.942 444.088 260.837 443.968 260.76C443.848 260.68 443.705 260.64 443.538 260.64C443.371 260.64 443.228 260.68 443.108 260.76C442.991 260.837 442.901 260.942 442.838 261.075C442.778 261.208 442.748 261.358 442.748 261.525V261.545ZM446.267 263.05C445.944 263.05 445.687 262.945 445.497 262.735C445.307 262.522 445.199 262.243 445.172 261.9C445.169 261.85 445.167 261.783 445.167 261.7C445.167 261.617 445.169 261.55 445.172 261.5C445.189 261.273 445.242 261.073 445.332 260.9C445.422 260.727 445.546 260.592 445.702 260.495C445.862 260.398 446.051 260.35 446.267 260.35C446.501 260.35 446.699 260.402 446.862 260.505C447.026 260.608 447.151 260.757 447.237 260.95C447.327 261.143 447.372 261.373 447.372 261.64V261.715C447.372 261.748 447.361 261.775 447.337 261.795C447.317 261.815 447.291 261.825 447.257 261.825H445.477C445.477 261.825 445.477 261.832 445.477 261.845C445.477 261.858 445.477 261.868 445.477 261.875C445.484 262.025 445.519 262.168 445.582 262.305C445.646 262.438 445.736 262.548 445.852 262.635C445.969 262.718 446.107 262.76 446.267 262.76C446.411 262.76 446.529 262.738 446.622 262.695C446.719 262.652 446.796 262.605 446.852 262.555C446.909 262.502 446.946 262.462 446.962 262.435C446.992 262.392 447.016 262.367 447.032 262.36C447.049 262.35 447.076 262.345 447.112 262.345H447.192C447.222 262.345 447.247 262.355 447.267 262.375C447.291 262.392 447.301 262.415 447.297 262.445C447.294 262.492 447.267 262.55 447.217 262.62C447.171 262.687 447.102 262.753 447.012 262.82C446.926 262.887 446.819 262.942 446.692 262.985C446.566 263.028 446.424 263.05 446.267 263.05ZM445.477 261.545H447.067V261.525C447.067 261.358 447.036 261.208 446.972 261.075C446.909 260.942 446.817 260.837 446.697 260.76C446.577 260.68 446.434 260.64 446.267 260.64C446.101 260.64 445.957 260.68 445.837 260.76C445.721 260.837 445.631 260.942 445.567 261.075C445.507 261.208 445.477 261.358 445.477 261.525V261.545ZM448.972 263.05C448.779 263.05 448.614 263.015 448.477 262.945C448.344 262.875 448.235 262.782 448.152 262.665C448.069 262.548 448.007 262.418 447.967 262.275C447.93 262.132 447.909 261.987 447.902 261.84C447.899 261.79 447.897 261.743 447.897 261.7C447.897 261.657 447.899 261.61 447.902 261.56C447.909 261.413 447.93 261.268 447.967 261.125C448.007 260.982 448.069 260.852 448.152 260.735C448.235 260.618 448.344 260.525 448.477 260.455C448.614 260.385 448.779 260.35 448.972 260.35C449.179 260.35 449.349 260.388 449.482 260.465C449.619 260.542 449.729 260.635 449.812 260.745V259.56C449.812 259.527 449.822 259.5 449.842 259.48C449.862 259.46 449.889 259.45 449.922 259.45H450.007C450.04 259.45 450.067 259.46 450.087 259.48C450.107 259.5 450.117 259.527 450.117 259.56V262.89C450.117 262.923 450.107 262.95 450.087 262.97C450.067 262.99 450.04 263 450.007 263H449.922C449.889 263 449.862 262.99 449.842 262.97C449.822 262.95 449.812 262.923 449.812 262.89V262.655C449.729 262.768 449.619 262.863 449.482 262.94C449.349 263.013 449.179 263.05 448.972 263.05ZM449.002 262.76C449.192 262.76 449.345 262.715 449.462 262.625C449.579 262.535 449.665 262.423 449.722 262.29C449.779 262.153 449.809 262.017 449.812 261.88C449.815 261.83 449.817 261.765 449.817 261.685C449.817 261.605 449.815 261.54 449.812 261.49C449.809 261.357 449.777 261.225 449.717 261.095C449.66 260.965 449.574 260.857 449.457 260.77C449.34 260.683 449.189 260.64 449.002 260.64C448.809 260.64 448.654 260.683 448.537 260.77C448.424 260.857 448.342 260.97 448.292 261.11C448.242 261.25 448.214 261.4 448.207 261.56C448.204 261.653 448.204 261.747 448.207 261.84C448.214 262 448.242 262.15 448.292 262.29C448.342 262.43 448.424 262.543 448.537 262.63C448.654 262.717 448.809 262.76 449.002 262.76Z" fill="#8A87C7"/>
<path d="M423.205 252.472C422.116 252.654 421.072 251.917 421.019 250.814C420.933 249.013 421.134 247.205 421.618 245.459C422.28 243.069 423.457 240.853 425.067 238.966C426.677 237.08 428.68 235.568 430.936 234.537C433.191 233.507 435.645 232.982 438.125 233C440.605 233.019 443.051 233.579 445.292 234.643C447.532 235.707 449.513 237.248 451.094 239.158C452.676 241.069 453.82 243.302 454.448 245.701C454.906 247.454 455.08 249.265 454.967 251.064C454.897 252.167 453.844 252.888 452.757 252.69L446.827 251.609C445.741 251.411 445.051 250.357 444.933 249.259C444.896 248.915 444.834 248.573 444.746 248.237C444.489 247.253 444.02 246.337 443.371 245.553C442.722 244.77 441.91 244.138 440.991 243.701C440.072 243.265 439.069 243.035 438.051 243.027C437.034 243.02 436.028 243.235 435.102 243.658C434.177 244.08 433.356 244.701 432.695 245.474C432.035 246.248 431.552 247.157 431.281 248.138C431.188 248.473 431.12 248.813 431.078 249.156C430.945 250.253 430.239 251.297 429.15 251.479L423.205 252.472Z" fill="url(#paint0_linear_122_8240)"/>
<path d="M449.768 236.836C450.685 236.19 451.807 237.312 451.161 238.229L441.498 251.952C441.491 251.962 441.481 251.971 441.474 251.981C440.785 253.187 439.488 254 438 254C435.791 254 434 252.209 434 250C434 248.523 434.801 247.234 435.992 246.541C436.009 246.527 436.027 246.513 436.045 246.5L449.768 236.836Z" fill="#FFE5D7"/>
<g filter="url(#filter3_d_122_8240)">
<path d="M685.889 307.847C687.49 305.867 690.51 305.867 692.111 307.847L705.967 324.985C707.153 326.452 707.153 328.548 705.967 330.015L692.111 347.153C690.51 349.133 687.49 349.133 685.889 347.153L672.033 330.015C670.847 328.548 670.847 326.452 672.033 324.985L685.889 307.847Z" fill="#EB0E70"/>
</g>
<g filter="url(#filter4_d_122_8240)">
<path d="M434.918 468.724C436.518 466.791 439.482 466.791 441.082 468.724L447.889 476.95C449.114 478.429 449.114 480.571 447.889 482.05L441.082 490.276C439.482 492.209 436.518 492.209 434.918 490.276L428.111 482.05C426.886 480.571 426.886 478.429 428.111 476.95L434.918 468.724Z" fill="#EB0E70"/>
</g>
<g filter="url(#filter5_d_122_8240)">
<path d="M387.918 133.724C389.518 131.791 392.482 131.791 394.082 133.724L400.889 141.95C402.114 143.429 402.114 145.571 400.889 147.05L394.082 155.276C392.482 157.209 389.518 157.209 387.918 155.276L381.111 147.05C379.886 145.571 379.886 143.429 381.111 141.95L387.918 133.724Z" fill="#EB0E70"/>
</g>
<g filter="url(#filter6_d_122_8240)">
<path d="M687.456 512.875C688.256 511.903 689.744 511.903 690.544 512.875L694.953 518.229C695.561 518.967 695.561 520.033 694.953 520.771L690.544 526.125C689.744 527.097 688.256 527.097 687.456 526.125L683.047 520.771C682.439 520.033 682.439 518.967 683.047 518.229L687.456 512.875Z" fill="#EB0E70"/>
</g>
<defs>
<filter id="filter0_f_122_8240" x="0.681152" y="-171.318" width="1093" height="1093" filterUnits="userSpaceOnUse" color-interpolation-filters="sRGB">
<feFlood flood-opacity="0" result="BackgroundImageFix"/>
<feBlend mode="normal" in="SourceGraphic" in2="BackgroundImageFix" result="shape"/>
<feGaussianBlur stdDeviation="200" result="effect1_foregroundBlur_122_8240"/>
</filter>
<filter id="filter1_d_122_8240" x="598" y="109" width="144" height="144" filterUnits="userSpaceOnUse" color-interpolation-filters="sRGB">
<feFlood flood-opacity="0" result="BackgroundImageFix"/>
<feColorMatrix in="SourceAlpha" type="matrix" values="0 0 0 0 0 0 0 0 0 0 0 0 0 0 0 0 0 0 127 0" result="hardAlpha"/>
<feOffset dy="22"/>
<feGaussianBlur stdDeviation="12"/>
<feComposite in2="hardAlpha" operator="out"/>
<feColorMatrix type="matrix" values="0 0 0 0 0 0 0 0 0 0 0 0 0 0 0 0 0 0 0.25 0"/>
<feBlend mode="normal" in2="BackgroundImageFix" result="effect1_dropShadow_122_8240"/>
<feBlend mode="normal" in="SourceGraphic" in2="effect1_dropShadow_122_8240" result="shape"/>
</filter>
<filter id="filter2_d_122_8240" x="384" y="218" width="108" height="108" filterUnits="userSpaceOnUse" color-interpolation-filters="sRGB">
<feFlood flood-opacity="0" result="BackgroundImageFix"/>
<feColorMatrix in="SourceAlpha" type="matrix" values="0 0 0 0 0 0 0 0 0 0 0 0 0 0 0 0 0 0 127 0" result="hardAlpha"/>
<feOffset dy="22"/>
<feGaussianBlur stdDeviation="12"/>
<feComposite in2="hardAlpha" operator="out"/>
<feColorMatrix type="matrix" values="0 0 0 0 0 0 0 0 0 0 0 0 0 0 0 0 0 0 0.25 0"/>
<feBlend mode="normal" in2="BackgroundImageFix" result="effect1_dropShadow_122_8240"/>
<feBlend mode="normal" in="SourceGraphic" in2="effect1_dropShadow_122_8240" result="shape"/>
</filter>
<filter id="filter3_d_122_8240" x="655.144" y="298.362" width="67.7119" height="74.2758" filterUnits="userSpaceOnUse" color-interpolation-filters="sRGB">
<feFlood flood-opacity="0" result="BackgroundImageFix"/>
<feColorMatrix in="SourceAlpha" type="matrix" values="0 0 0 0 0 0 0 0 0 0 0 0 0 0 0 0 0 0 127 0" result="hardAlpha"/>
<feOffset dy="8"/>
<feGaussianBlur stdDeviation="8"/>
<feComposite in2="hardAlpha" operator="out"/>
<feColorMatrix type="matrix" values="0 0 0 0 1 0 0 0 0 0.576471 0 0 0 0 0.341177 0 0 0 0.49 0"/>
<feBlend mode="normal" in2="BackgroundImageFix" result="effect1_dropShadow_122_8240"/>
<feBlend mode="normal" in="SourceGraphic" in2="effect1_dropShadow_122_8240" result="shape"/>
</filter>
<filter id="filter4_d_122_8240" x="411.192" y="459.274" width="53.6152" height="56.4523" filterUnits="userSpaceOnUse" color-interpolation-filters="sRGB">
<feFlood flood-opacity="0" result="BackgroundImageFix"/>
<feColorMatrix in="SourceAlpha" type="matrix" values="0 0 0 0 0 0 0 0 0 0 0 0 0 0 0 0 0 0 127 0" result="hardAlpha"/>
<feOffset dy="8"/>
<feGaussianBlur stdDeviation="8"/>
<feComposite in2="hardAlpha" operator="out"/>
<feColorMatrix type="matrix" values="0 0 0 0 1 0 0 0 0 0.576471 0 0 0 0 0.341177 0 0 0 0.49 0"/>
<feBlend mode="normal" in2="BackgroundImageFix" result="effect1_dropShadow_122_8240"/>
<feBlend mode="normal" in="SourceGraphic" in2="effect1_dropShadow_122_8240" result="shape"/>
</filter>
<filter id="filter5_d_122_8240" x="364.192" y="124.274" width="53.6152" height="56.4523" filterUnits="userSpaceOnUse" color-interpolation-filters="sRGB">
<feFlood flood-opacity="0" result="BackgroundImageFix"/>
<feColorMatrix in="SourceAlpha" type="matrix" values="0 0 0 0 0 0 0 0 0 0 0 0 0 0 0 0 0 0 127 0" result="hardAlpha"/>
<feOffset dy="8"/>
<feGaussianBlur stdDeviation="8"/>
<feComposite in2="hardAlpha" operator="out"/>
<feColorMatrix type="matrix" values="0 0 0 0 1 0 0 0 0 0.576471 0 0 0 0 0.341177 0 0 0 0.49 0"/>
<feBlend mode="normal" in2="BackgroundImageFix" result="effect1_dropShadow_122_8240"/>
<feBlend mode="normal" in="SourceGraphic" in2="effect1_dropShadow_122_8240" result="shape"/>
</filter>
<filter id="filter6_d_122_8240" x="666.591" y="504.146" width="44.8184" height="46.7078" filterUnits="userSpaceOnUse" color-interpolation-filters="sRGB">
<feFlood flood-opacity="0" result="BackgroundImageFix"/>
<feColorMatrix in="SourceAlpha" type="matrix" values="0 0 0 0 0 0 0 0 0 0 0 0 0 0 0 0 0 0 127 0" result="hardAlpha"/>
<feOffset dy="8"/>
<feGaussianBlur stdDeviation="8"/>
<feComposite in2="hardAlpha" operator="out"/>
<feColorMatrix type="matrix" values="0 0 0 0 1 0 0 0 0 0.576471 0 0 0 0 0.341177 0 0 0 0.49 0"/>
<feBlend mode="normal" in2="BackgroundImageFix" result="effect1_dropShadow_122_8240"/>
<feBlend mode="normal" in="SourceGraphic" in2="effect1_dropShadow_122_8240" result="shape"/>
</filter>
<linearGradient id="paint0_linear_122_8240" x1="421" y1="244" x2="454" y2="244" gradientUnits="userSpaceOnUse">
<stop offset="0.64375" stop-color="#F34748"/>
<stop offset="1" stop-color="#FFD1B7"/>
</linearGradient>
</defs>
</svg>
